

Release info:

General
Format                                   : Matroska
Format version                           : Version 2
File size                                : 730 MiB
Duration                                 : 1h 22mn
Overall bit rate                         : 1 233 Kbps


Video
ID                                       : 1
Format                                   : MPEG-4 Visual
Format profile                           : Advanced Simple@L5
Format settings, BVOP                    : Yes
Format settings, QPel                    : No
Format settings, GMC                     : No warppoints
Format settings, Matrix                  : Default (H.263)
Codec ID                                 : V_MS/VFW/FOURCC / XVID
Codec ID/Hint                            : XviD
Duration                                 : 1h 22mn
Bit rate                                 : 1 081 Kbps
Width                                    : 640 pixels
Height                                   : 360 pixels
Display aspect ratio                     : 16:9
Frame rate mode                          : Constant
Frame rate                               : 29.970 fps
Color space                              : YUV
Chroma subsampling                       : 4:2:0
Bit depth                                : 8 bits
Scan type                                : Progressive
Compression mode                         : Lossy
Bits/(Pixel*Frame)                       : 0.157
Stream size                              : 640 MiB (88%)
Writing library                          : XviD 64
Language                                 : English
Default                                  : Yes
Forced                                   : No

Audio
ID                                       : 2
Format                                   : MPEG Audio
Format version                           : Version 1
Format profile                           : Layer 3
Mode                                     : Joint stereo
Muxing mode                              : Header stripping
Codec ID                                 : A_MPEG/L3
Codec ID/Hint                            : MP3
Duration                                 : 1h 22mn
Bit rate mode                            : Constant
Bit rate                                 : 128 Kbps
Channel(s)                               : 2 channels
Sampling rate                            : 48.0 KHz
Compression mode                         : Lossy
Stream size                              : 75.8 MiB (10%)
Language                                 : English
Default                                  : Yes
Forced                                   : No


Source:
credit to original movie ripper UnKnOwN (Thanks)

IMDB Info:

A small town is being terrorized by a killer Bigfoot. One that is blood thirsty, vicious and kills without warning and without discrimination...
Director: David A. Prior
Writers: David A. Prior, Fabio Soldani (story)
Stars: Frank Stallone, Leilani Sarelle and Sherrie Rose

Genres: Horror
 
http://www.imdb.com/title/tt1874649/

Screen Shot:
 
http://www.shotpix.com/images/78556706887602647146.png 
http://www.shotpix.com/images/49900332452226692238.png 
http://www.shotpix.com/images/20720974536229232166.png 
http://www.shotpix.com/images/50521546642706728338.png 
http://www.shotpix.com/images/81749012530620758869.png 
http://www.shotpix.com/images/45572827351349745532.png